<svg width="60" height="60" viewBox="0 0 60 60" fill="none" xmlns="http://www.w3.org/2000/svg">
<path d="M17.8263 16.7503C15.5218 16.4619 14.8975 16.1952 14.8975 14.8679C14.8975 13.5744 16.5421 12.9929 17.71 12.9929C18.8347 12.8727 19.9429 13.3365 20.6464 14.2229C20.9057 14.6614 21.4677 14.8129 21.9122 14.5641C22.3565 14.3147 22.5206 13.7561 22.2812 13.3058C21.4525 12.0876 20.1164 11.3101 18.6475 11.1918V10.1804C18.6475 9.6627 18.2279 9.24316 17.71 9.24316C17.1925 9.24316 16.7727 9.6627 16.7727 10.1804V11.194C14.8199 11.5022 13.0225 12.7666 13.0225 14.8679C13.0225 18.0392 15.7742 18.3836 17.5939 18.6102C19.8984 18.8989 20.5227 19.1653 20.5227 20.4929C20.5227 21.6847 19.497 22.3679 17.71 22.3679C16.6369 22.4707 15.5587 22.2389 14.6228 21.705C14.255 21.3498 13.6705 21.3551 13.3089 21.716C12.9471 22.0781 12.9422 22.6623 13.2971 23.0307C13.4775 23.2105 14.4224 24.0243 16.7727 24.2033V25.1804C16.7727 25.6981 17.1925 26.1176 17.71 26.1176C18.2279 26.1176 18.6475 25.6981 18.6475 25.1804V24.1722C21.3813 23.8349 22.3977 22.0536 22.3977 20.4929C22.3977 17.3213 19.646 16.9774 17.8263 16.7503Z" fill="white"/>
<path d="M17.717 5.49316C10.9865 5.49316 5.52979 10.9494 5.52979 17.6798C5.52979 24.4109 10.9865 29.8671 17.717 29.8671C24.4478 29.8671 29.9042 24.4109 29.9042 17.6798C29.8968 10.9527 24.4447 5.50059 17.717 5.49316ZM17.717 27.9921C12.0219 27.9921 7.40451 23.3755 7.40451 17.6798C7.40451 11.9847 12.0219 7.36816 17.717 7.36816C23.4124 7.36816 28.0295 11.9847 28.0295 17.6798C28.0226 23.3725 23.4096 27.9857 17.717 27.9921Z" fill="white"/>
<path d="M44.9045 31.7279C41.4214 31.7183 38.0792 33.102 35.623 35.5717C34.8655 36.3352 34.2043 37.1883 33.6545 38.1123V17.6657C33.6545 8.86396 26.5188 1.72852 17.717 1.72852C8.91523 1.72852 1.77979 8.86396 1.77979 17.6657V55.1652C1.77979 56.7182 3.03895 57.9777 4.59228 57.9777H30.842C32.3951 57.9777 33.6545 56.7182 33.6545 55.1652V51.5925C34.2043 52.516 34.8655 53.3693 35.623 54.1331C39.8233 58.3337 46.3212 59.1893 51.4659 56.2192C56.6103 53.2497 59.119 47.1942 57.5816 41.4562C56.0445 35.7182 50.8446 31.7279 44.9045 31.7279ZM31.7792 55.1652C31.7792 55.6828 31.3597 56.1024 30.842 56.1024H4.59228C4.0746 56.1024 3.65478 55.6828 3.65478 55.1652V48.6029H11.2296C11.6931 51.8295 14.4572 54.2252 17.717 54.2252C20.9768 54.2252 23.7409 51.8295 24.2044 48.6029H31.7792V55.1652ZM22.3107 48.6029C21.8673 50.7875 19.9464 52.3573 17.717 52.3573C15.4882 52.3573 13.5673 50.7875 13.1235 48.6029H22.3107ZM13.1235 46.7279C13.5673 44.5431 15.4882 42.9733 17.717 42.9733C19.9464 42.9733 21.8673 44.5431 22.3107 46.7279H13.1235ZM31.7792 46.7279H24.2044C23.7409 43.5011 20.9768 41.1057 17.717 41.1057C14.4572 41.1057 11.6931 43.5011 11.2296 46.7279H3.65478V25.166C3.66496 25.1858 3.67705 25.2034 3.68778 25.2229C3.71774 25.2793 3.75238 25.3329 3.78153 25.3876C3.97535 25.7376 4.18347 26.0771 4.40286 26.41C4.46939 26.5115 4.53702 26.6121 4.60548 26.7116C4.86144 27.0869 5.12757 27.4438 5.41266 27.7896L5.42394 27.8047C5.71343 28.1553 6.0219 28.4882 6.34082 28.8126C6.42412 28.8992 6.51017 28.9823 6.59677 29.0667C6.87747 29.3405 7.1656 29.6036 7.46582 29.8571C7.5186 29.9022 7.56864 29.9508 7.62225 29.9937C7.97113 30.275 8.33403 30.548 8.70573 30.8036C8.79976 30.8685 8.89351 30.9293 8.99221 30.9911C9.30452 31.1957 9.62316 31.3892 9.94758 31.5726C10.0345 31.621 10.12 31.6741 10.2088 31.7216C10.6082 31.9352 11.0168 32.1324 11.4352 32.3122C11.529 32.3518 11.6224 32.3864 11.7165 32.4238C12.0651 32.5662 12.4197 32.696 12.7804 32.8139C12.8918 32.8502 13.0034 32.889 13.1172 32.9236C13.5596 33.0564 14.0077 33.1757 14.4641 33.2703C14.5317 33.2846 14.601 33.2942 14.6692 33.3069C15.0706 33.3849 15.4764 33.446 15.8882 33.4944C16.0147 33.5086 16.1411 33.5227 16.269 33.5348C16.7479 33.5779 17.2296 33.6076 17.72 33.6076C18.2099 33.6076 18.6919 33.5779 19.1708 33.5348C19.2984 33.5227 19.4251 33.5086 19.5516 33.4944C19.9623 33.4468 20.3684 33.3858 20.7706 33.3069C20.8391 33.2942 20.9081 33.2846 20.9763 33.2703C21.4321 33.1765 21.8816 33.0564 22.3231 32.9236C22.4364 32.889 22.5477 32.8502 22.6594 32.8139C23.0201 32.6971 23.375 32.567 23.7233 32.4238C23.8173 32.3864 23.9108 32.3518 24.0048 32.3122C24.4241 32.1324 24.8327 31.9352 25.231 31.7216C25.3201 31.6741 25.4053 31.621 25.493 31.5726C25.8191 31.3903 26.1372 31.1962 26.4481 30.9911C26.5413 30.9285 26.64 30.8674 26.7291 30.8036C27.1041 30.548 27.4642 30.2785 27.8129 29.9937C27.8662 29.9486 27.9171 29.9002 27.9693 29.8571C28.2692 29.6036 28.5582 29.3405 28.8383 29.0667C28.9247 28.9823 29.011 28.8992 29.0946 28.8126C29.4129 28.4882 29.7217 28.1564 30.0114 27.8047L30.0224 27.7896C30.304 27.4438 30.5737 27.082 30.8296 26.7116C30.8981 26.6121 30.9654 26.5115 31.032 26.41C31.2514 26.0771 31.4595 25.7376 31.6536 25.3876C31.6844 25.3329 31.719 25.2793 31.7476 25.2229C31.7578 25.2034 31.7699 25.1858 31.78 25.166L31.7792 46.7279ZM17.717 31.7279C9.95088 31.7279 3.65478 25.4324 3.65478 17.6657C3.65478 9.89933 9.95088 3.60351 17.717 3.60351C25.4834 3.60351 31.7792 9.89933 31.7792 17.6657C31.7704 25.4286 25.4798 31.7191 17.717 31.7279ZM43.8867 33.653C44.2235 33.6227 44.5617 33.6035 44.9045 33.6035C47.8894 33.5947 50.7538 34.7813 52.8584 36.8982C53.0459 37.0857 53.2158 37.2839 53.3887 37.4816C50.3505 37.1671 47.2928 37.842 44.6694 39.4053C43.9629 37.5751 43.6948 35.6052 43.8867 33.653ZM36.9495 36.8982C38.3456 35.5002 40.0875 34.497 41.9977 33.992C41.8457 36.218 42.2198 38.4485 43.09 40.5031C42.6878 40.8222 42.3034 41.1626 41.9389 41.5241C41.4605 42.0031 41.0165 42.5161 40.6115 43.0585C38.5419 42.1719 36.2905 41.7903 34.0443 41.947C34.5491 40.0365 35.5515 38.2943 36.9495 36.8982ZM37.9865 53.7138C35.2394 51.5974 33.6374 48.3203 33.6545 44.8532C33.6545 44.5107 33.674 44.1722 33.7043 43.8357C35.6977 43.6389 37.7099 43.9226 39.5715 44.6635C38.0431 47.4169 37.4848 50.6047 37.9865 53.7138ZM45.9214 56.0576C45.5849 56.0875 45.2462 56.1073 44.9045 56.1073C43.2874 56.1054 41.6906 55.7535 40.2222 55.0758C39.2396 51.8853 39.6072 48.4308 41.24 45.5185C41.8454 45.8971 42.4071 46.3403 42.9154 46.8412C45.2338 49.3142 46.3347 52.6886 45.9214 56.0534V56.0576ZM52.8584 52.8123C51.4626 54.2103 49.7206 55.213 47.8102 55.7186C48.1327 51.9658 46.8339 48.2541 44.2411 45.5213C43.6467 44.9354 42.991 44.4147 42.2855 43.9691C42.5893 43.5787 42.9165 43.2072 43.2643 42.8559C43.4958 42.6241 43.7377 42.4069 43.9854 42.1999C44.4374 42.9221 44.968 43.5924 45.5671 44.1983C48.0573 46.588 51.3966 47.8887 54.848 47.8136C55.1504 47.8136 55.4581 47.7872 55.7638 47.7694C55.2574 49.6757 54.2547 51.4141 52.8584 52.8077V52.8123ZM56.1537 44.8532C56.1537 45.1949 56.1341 45.5337 56.1039 45.8699C52.7402 46.2834 49.3654 45.1826 46.8925 42.8647C46.3624 42.3297 45.8967 41.7358 45.5027 41.0936C48.307 39.3723 51.6845 38.8483 54.878 39.6387C55.7201 41.2473 56.1578 43.0373 56.1537 44.8532Z" fill="white"/>
<path d="M57.9829 4.8972C57.8844 4.58351 57.6285 4.34405 57.3093 4.26652L55.2468 3.7645L54.1056 2.13281C53.9214 1.89638 53.6382 1.75781 53.338 1.75781C53.038 1.75781 52.7549 1.89638 52.5704 2.13281L51.4267 3.7645L49.3642 4.26652C49.0444 4.34377 48.789 4.58296 48.6903 4.89692C48.5922 5.21061 48.665 5.5529 48.8831 5.79923L50.1958 7.28136L50.085 9.17698C50.0669 9.49095 50.2068 9.79309 50.4589 9.98114C50.7105 10.17 51.0396 10.2198 51.3357 10.1145L53.338 9.40187L55.3403 10.115C55.6369 10.2209 55.9663 10.1711 56.2176 9.98224C56.4691 9.79364 56.6096 9.4915 56.5915 9.17808L56.4776 7.28219L57.7907 5.80006C58.0087 5.554 58.0813 5.21089 57.9829 4.8972ZM54.8157 6.32709C54.6516 6.51322 54.5683 6.75708 54.5823 7.00479L54.6351 7.87273L53.6533 7.5233C53.4496 7.44962 53.2269 7.44962 53.0232 7.5233L52.0417 7.87273L52.0939 7.00479C52.1085 6.75708 52.0244 6.51322 51.8611 6.32709L51.3214 5.7195L52.2133 5.50176C52.4351 5.44788 52.6295 5.31426 52.7595 5.12704L53.338 4.30363L53.9164 5.13061C54.047 5.31811 54.2414 5.45145 54.4635 5.50589L55.3548 5.72335L54.8157 6.32709Z" fill="white"/>
<path d="M47.6729 19.7944C47.5745 19.4807 47.3194 19.2412 46.9994 19.1634L44.9371 18.6628L43.7934 17.0308C43.6087 16.7938 43.3255 16.6553 43.0258 16.6553C42.7256 16.6553 42.4422 16.7938 42.2582 17.0308L41.1143 18.6628L39.0518 19.1634C38.7323 19.2407 38.4764 19.4801 38.3782 19.7938C38.2792 20.1078 38.3529 20.4501 38.5709 20.6961L39.8829 22.1791L39.7696 24.0747C39.7517 24.389 39.8917 24.6911 40.1435 24.8792C40.3948 25.0677 40.7242 25.1178 41.0205 25.0125L43.0283 24.3002L45.0312 25.013C45.327 25.1189 45.6563 25.0691 45.9079 24.8802C46.1592 24.6917 46.2997 24.3895 46.2815 24.0758L46.168 22.1791L47.4807 20.6961C47.6979 20.4501 47.7711 20.1078 47.6729 19.7944ZM44.5058 21.2259C44.3414 21.4121 44.2572 21.6556 44.2724 21.9036L44.3251 22.7718L43.3434 22.4221C43.1397 22.3482 42.917 22.3482 42.7132 22.4221L41.7318 22.7718L41.7845 21.9036C41.7997 21.6556 41.7155 21.4121 41.5511 21.2259L41.0123 20.6183L41.9036 20.3981C42.1252 20.3437 42.3198 20.2103 42.4504 20.0231L43.0283 19.2016L43.6068 20.0286C43.7371 20.2161 43.9314 20.3495 44.1536 20.4036L45.0449 20.6214L44.5058 21.2259Z" fill="white"/>
</svg>
