<svg width="60" height="60" viewBox="0 0 60 60" fill="none" xmlns="http://www.w3.org/2000/svg">
<g clip-path="url(#clip0_8446_1539)">
<path d="M59.9306 20.4145C59.9226 20.3036 59.9146 20.1826 59.9046 20.0666C59.8596 19.5516 59.8046 19.0417 59.7186 18.5367C59.7066 18.4607 59.6907 18.3847 59.6787 18.3087C59.5967 17.8288 59.4997 17.3544 59.3877 16.8859C59.3707 16.8169 59.3567 16.7479 59.3397 16.6799C59.2087 16.1569 59.0577 15.642 58.8907 15.134C58.8727 15.08 58.8537 15.027 58.8357 14.973C54.9566 3.46394 42.4818 -2.72138 30.9727 1.15789C24.4626 3.3522 19.3519 8.46286 17.1576 14.973C17.1396 15.027 17.1206 15.08 17.1026 15.134C16.9356 15.642 16.7846 16.1569 16.6536 16.6799C16.6366 16.7479 16.6226 16.8169 16.6056 16.8859C16.4936 17.3524 16.3967 17.8268 16.3147 18.3087C16.3027 18.3847 16.2867 18.4607 16.2747 18.5367C16.1937 19.0367 16.1337 19.5516 16.0887 20.0666C16.0787 20.1826 16.0707 20.2986 16.0627 20.4145C16.0247 20.9405 15.9987 21.4684 15.9987 22.0034C15.9987 22.0514 15.9987 22.1034 16.0047 22.1714C16.0287 25.5907 16.8507 28.957 18.4055 32.0025H0.99991C0.44771 32.0025 0 32.4502 0 33.0024V55.0004C0 55.5526 0.44771 56.0004 0.99991 56.0004H3.99964V59.0001C3.99964 59.5523 4.44735 60 4.99955 60H50.9954C51.5476 60 51.9953 59.5523 51.9953 59.0001V38.9629C57.0723 34.797 60.009 28.5707 59.9946 22.0034C59.9946 21.4684 59.9686 20.9405 59.9306 20.4145ZM55.0971 11.6983C55.1581 11.7893 55.2161 11.8803 55.271 11.9743C55.427 12.2403 55.58 12.5083 55.723 12.7802C55.923 13.1596 56.109 13.5452 56.281 13.9371C56.3649 14.1241 56.4439 14.3131 56.5219 14.5021C56.7139 14.974 56.8939 15.452 57.0499 15.9419C57.0879 16.0589 57.1189 16.1789 57.1499 16.2979C57.3039 16.8159 57.4429 17.3398 57.5558 17.8738C57.5658 17.9198 57.5788 17.9648 57.5878 18.0108C57.7058 18.5907 57.7878 19.1817 57.8588 19.7786C57.8698 19.8786 57.8828 19.9786 57.8918 20.0786C57.8988 20.1506 57.8918 20.2256 57.9038 20.2986L53.4252 16.9898L55.0971 11.6983ZM53.6632 9.61251L51.4564 16.5959L45.149 18.8847L38.9965 14.4901V7.5187L44.94 3.27308C48.3718 4.55047 51.3885 6.74289 53.6632 9.61251ZM41.3033 27.003H34.6899L32.2031 20.3705L37.9966 16.2329L43.7901 20.3705L41.3033 27.003ZM41.5103 29.0028L43.8651 32.0025H32.1281L34.4829 29.0028H41.5103ZM33.577 2.51415C33.837 2.45415 34.0969 2.40216 34.3579 2.35316C34.8319 2.26517 35.3078 2.18718 35.7918 2.13318C35.9428 2.11618 36.0918 2.10718 36.2448 2.09419C36.7937 2.04619 37.3447 2.01219 37.9056 2.01019C37.9666 2.01019 38.0266 2.01019 38.0876 2.01019C38.6475 2.01019 39.1995 2.04619 39.7484 2.09419C39.8994 2.10718 40.0484 2.11618 40.2014 2.13318C40.6854 2.18718 41.1613 2.26517 41.6353 2.35316C41.8962 2.40216 42.1562 2.45315 42.4162 2.51415C42.4532 2.52215 42.4882 2.53315 42.5242 2.54215L37.9966 5.77585L33.469 2.54215C33.505 2.53315 33.54 2.52215 33.577 2.51415ZM31.0532 3.27308L36.9967 7.5187V14.4901L30.8442 18.8847L24.5368 16.5959L22.33 9.61251C24.6047 6.74289 27.6214 4.55047 31.0532 3.27308ZM18.0984 20.0776C18.1074 19.9776 18.1204 19.8776 18.1314 19.7776C18.1984 19.1777 18.2844 18.5897 18.4024 18.0108C18.4124 17.9638 18.4244 17.9178 18.4343 17.8708C18.5473 17.3378 18.6863 16.8139 18.8403 16.2969C18.8763 16.1779 18.9073 16.0579 18.9453 15.9409C19.1013 15.451 19.2813 14.973 19.4733 14.5011C19.5512 14.3121 19.6302 14.1231 19.7142 13.9361C19.8882 13.5428 20.0742 13.1572 20.2722 12.7792C20.4152 12.5073 20.5722 12.2393 20.7241 11.9733C20.7791 11.8793 20.8371 11.7883 20.8931 11.6963L22.565 16.9878L18.0864 20.2966C18.0914 20.2246 18.0894 20.1496 18.0984 20.0776ZM18.0264 22.8273H18.0284L23.8979 18.4917L30.2243 20.7915L32.8651 27.8329L29.5863 32.0025H20.6871C19.0697 29.205 18.1565 26.0562 18.0264 22.8273ZM1.99982 54.0005V34.0023H45.9959V54.0005H1.99982ZM49.9955 58.0002H5.99946V56.0004H46.9958C47.548 56.0004 47.9957 55.5526 47.9957 55.0004V38.002H49.9955V58.0002ZM51.8024 36.4491C51.6244 36.1754 51.3219 36.0078 50.9954 36.0021H47.9957V35.1272L53.1022 35.0872C52.691 35.5612 52.2577 36.0151 51.8024 36.4491ZM54.6521 33.0744L47.9957 33.1274V33.0024C47.9957 32.4502 47.548 32.0025 46.9958 32.0025H46.4068L43.1301 27.8279L45.7709 20.7865L52.0973 18.4867L57.9718 22.8263C57.8299 26.4829 56.6812 30.0292 54.6521 33.0744Z" fill="white"/>
<path d="M42.9955 39.9985C41.3388 39.9985 39.9958 38.6555 39.9958 36.9987C39.9958 36.4465 39.5481 35.9988 38.9959 35.9988H29.3738C26.2853 33.3324 21.7092 33.3324 18.6207 35.9988H8.99858C8.44638 35.9988 7.99867 36.4465 7.99867 36.9987C7.99867 38.6555 6.65566 39.9985 4.99893 39.9985C4.44673 39.9985 3.99902 40.4462 3.99902 40.9984V46.9978C3.99902 47.55 4.44673 47.9977 4.99893 47.9977C6.65566 47.9977 7.99867 49.3407 7.99867 50.9975C7.99867 51.5497 8.44638 51.9974 8.99858 51.9974H18.6207C21.7092 54.6638 26.2853 54.6638 29.3738 51.9974H38.9959C39.5481 51.9974 39.9958 51.5497 39.9958 50.9975C39.9958 49.3407 41.3388 47.9977 42.9955 47.9977C43.5477 47.9977 43.9954 47.55 43.9954 46.9978V40.9984C43.9954 40.4462 43.5479 39.9985 42.9955 39.9985ZM16.8159 49.9976H9.8985C9.49478 48.0351 7.96129 46.5016 5.99884 46.0979V41.8983C7.96129 41.4946 9.49478 39.9611 9.8985 37.9986H16.8159C14.3935 41.6316 14.3935 46.3648 16.8159 49.9976ZM23.9972 51.9974C20.1376 51.9974 16.9979 48.4087 16.9979 43.9981C16.9979 39.5875 20.1376 35.9988 23.9972 35.9988C27.8569 35.9988 30.9966 39.5875 30.9966 43.9981C30.9966 48.4087 27.8569 51.9974 23.9972 51.9974ZM41.9956 46.0979C40.0332 46.5016 38.4997 48.0351 38.096 49.9976H31.1796C33.602 46.3648 33.602 41.6314 31.1796 37.9986H38.096C38.4997 39.9611 40.0332 41.4946 41.9956 41.8983V46.0979Z" fill="white"/>
<path d="M23.9983 42.9976C23.4461 42.9976 22.9984 42.5499 22.9984 41.9977C22.9984 41.4455 23.4461 40.9978 23.9983 40.9978C24.5505 40.9978 24.9982 41.4455 24.9982 41.9977H26.998C26.9927 40.7311 26.1924 39.6042 24.9982 39.1819V37.998H22.9984V39.1819C21.4394 39.731 20.6207 41.44 21.1699 42.999C21.5924 44.1984 22.7266 44.9999 23.9983 44.9974C24.5505 44.9974 24.9982 45.4451 24.9982 45.9973C24.9982 46.5495 24.5505 46.9972 23.9983 46.9972C23.4461 46.9972 22.9984 46.5495 22.9984 45.9973H20.9985C21.0038 47.264 21.8041 48.3909 22.9984 48.8131V49.997H24.9982V48.8131C26.5572 48.264 27.3758 46.555 26.8266 44.996C26.4043 43.7967 25.2699 42.9952 23.9983 42.9976Z" fill="white"/>
</g>
<defs>
<clipPath id="clip0_8446_1539">
<rect width="60" height="60" fill="white"/>
</clipPath>
</defs>
</svg>
