<svg width="60" height="60" viewBox="0 0 60 60" fill="none" xmlns="http://www.w3.org/2000/svg">
<g clip-path="url(#clip0_8446_1522)">
<path d="M44.9349 23.2617L43.5864 24.7357L49.7192 30.3577C51.1629 31.686 51.9859 33.5575 51.9864 35.5187V59.9987H53.9864V35.5187C53.9839 32.9962 52.9259 30.5907 51.0684 28.8835L44.9349 23.2617Z" fill="white"/>
<path d="M36.9839 0H10.9839C8.22389 0.0035 5.98739 2.24 5.98389 5V55C5.98739 57.76 8.22389 59.9965 10.9839 60H35.9839V58.211C35.9791 53.7063 37.3126 49.3005 39.8159 45.555C40.0809 45.158 40.0276 44.6298 39.6909 44.293L32.6909 37.293C32.0439 36.6453 31.7009 35.7545 31.7461 34.8403C31.7916 33.9255 32.2214 33.0735 32.9289 32.493C34.2916 31.4513 36.2189 31.6 37.4059 32.8378L47.2769 42.709L48.6909 41.295L41.9839 34.586V5C41.9804 2.24 39.7439 0.0035 36.9839 0ZM39.9839 32.586L38.8199 31.422C36.9014 29.462 33.8159 29.2578 31.6559 30.9485C30.5134 31.8875 29.8201 33.266 29.7479 34.7438C29.6759 36.2213 30.2309 37.6605 31.2769 38.707L37.7069 45.1373C35.3089 49.0015 34.0229 53.4525 33.9909 58H10.9839C9.32739 58 7.98389 56.6565 7.98389 55V52H32.9839V50H7.98389V8H39.9839V32.586ZM39.9839 6H7.98389V5C7.98389 3.3435 9.32739 2 10.9839 2H36.9839C38.6404 2 39.9839 3.3435 39.9839 5V6Z" fill="white"/>
<path d="M11.9829 18.0049H15.9829C17.0877 18.0049 17.9829 17.1096 17.9829 16.0049V12.0049C17.9829 10.9001 17.0877 10.0049 15.9829 10.0049H11.9829C10.8782 10.0049 9.98291 10.9001 9.98291 12.0049V16.0049C9.98291 17.1096 10.8782 18.0049 11.9829 18.0049ZM11.9829 12.0049H15.9829V16.0049H11.9829V12.0049Z" fill="white"/>
<path d="M21.9805 17.9902H25.9805C27.0852 17.9902 27.9805 17.095 27.9805 15.9902V11.9902C27.9805 10.8855 27.0852 9.99023 25.9805 9.99023H21.9805C20.8757 9.99023 19.9805 10.8855 19.9805 11.9902V15.9902C19.9805 17.095 20.8757 17.9902 21.9805 17.9902ZM21.9805 11.9902H25.9805V15.9902H21.9805V11.9902Z" fill="white"/>
<path d="M31.9854 17.9902H35.9854C37.0901 17.9902 37.9854 17.095 37.9854 15.9902V11.9902C37.9854 10.8855 37.0901 9.99023 35.9854 9.99023H31.9854C30.8806 9.99023 29.9854 10.8855 29.9854 11.9902V15.9902C29.9854 17.095 30.8806 17.9902 31.9854 17.9902ZM31.9854 11.9902H35.9854V15.9902H31.9854V11.9902Z" fill="white"/>
<path d="M11.9829 27.9951H15.9829C17.0877 27.9951 17.9829 27.0999 17.9829 25.9951V21.9951C17.9829 20.8904 17.0877 19.9951 15.9829 19.9951H11.9829C10.8782 19.9951 9.98291 20.8904 9.98291 21.9951V25.9951C9.98291 27.0999 10.8782 27.9951 11.9829 27.9951ZM11.9829 21.9951H15.9829V25.9951H11.9829V21.9951Z" fill="white"/>
<path d="M11.9829 38H15.9829C17.0877 38 17.9829 37.1048 17.9829 36V32C17.9829 30.8953 17.0877 30 15.9829 30H11.9829C10.8782 30 9.98291 30.8953 9.98291 32V36C9.98291 37.1048 10.8782 38 11.9829 38ZM11.9829 32H15.9829V36H11.9829V32Z" fill="white"/>
<path d="M21.9805 28.0098H25.9805C27.0852 28.0098 27.9805 27.1145 27.9805 26.0098V22.0098C27.9805 20.905 27.0852 20.0098 25.9805 20.0098H21.9805C20.8757 20.0098 19.9805 20.905 19.9805 22.0098V26.0098C19.9805 27.1145 20.8757 28.0098 21.9805 28.0098ZM21.9805 22.0098H25.9805V26.0098H21.9805V22.0098Z" fill="white"/>
<path d="M31.9854 28.0098H35.9854C37.0901 28.0098 37.9854 27.1145 37.9854 26.0098V22.0098C37.9854 20.905 37.0901 20.0098 35.9854 20.0098H31.9854C30.8806 20.0098 29.9854 20.905 29.9854 22.0098V26.0098C29.9854 27.1145 30.8806 28.0098 31.9854 28.0098ZM31.9854 22.0098H35.9854V26.0098H31.9854V22.0098Z" fill="white"/>
<path d="M21.9805 38H25.9805C27.0852 38 27.9805 37.1048 27.9805 36V32C27.9805 30.8953 27.0852 30 25.9805 30H21.9805C20.8757 30 19.9805 30.8953 19.9805 32V36C19.9805 37.1048 20.8757 38 21.9805 38ZM21.9805 32H25.9805V36H21.9805V32Z" fill="white"/>
<path d="M11.9829 48.0049H15.9829C17.0877 48.0049 17.9829 47.1096 17.9829 46.0049V42.0049C17.9829 40.9001 17.0877 40.0049 15.9829 40.0049H11.9829C10.8782 40.0049 9.98291 40.9001 9.98291 42.0049V46.0049C9.98291 47.1096 10.8782 48.0049 11.9829 48.0049ZM11.9829 42.0049H15.9829V46.0049H11.9829V42.0049Z" fill="white"/>
<path d="M21.9805 47.9902H25.9805C27.0852 47.9902 27.9805 47.095 27.9805 45.9902V41.9902C27.9805 40.8855 27.0852 39.9902 25.9805 39.9902H21.9805C20.8757 39.9902 19.9805 40.8855 19.9805 41.9902V45.9902C19.9805 47.095 20.8757 47.9902 21.9805 47.9902ZM21.9805 41.9902H25.9805V45.9902H21.9805V41.9902Z" fill="white"/>
<path d="M22.9834 53.9941H24.9834V55.9941H22.9834V53.9941Z" fill="white"/>
</g>
<defs>
<clipPath id="clip0_8446_1522">
<rect width="60" height="60" fill="white"/>
</clipPath>
</defs>
</svg>
