<svg width="42" height="42" viewBox="0 0 42 42" fill="none" xmlns="http://www.w3.org/2000/svg">
<rect width="42" height="42" rx="21" fill="url(#paint0_linear_8223_3388)"/>
<path d="M20.9992 29.4C21.3705 29.4 21.7266 29.2525 21.9892 28.9899C22.2517 28.7274 22.3992 28.3713 22.3992 28V11.7808L24.2094 13.5897C24.4505 13.8307 24.7712 13.9755 25.1115 13.9969C25.4517 14.0183 25.7881 13.9148 26.0574 13.7059L26.189 13.5897C26.4301 13.3486 26.5749 13.0278 26.5963 12.6876C26.6177 12.3474 26.5142 12.011 26.3052 11.7416L26.189 11.61L21.989 7.41001C21.7479 7.16896 21.4272 7.02415 21.087 7.00276C20.7467 6.98137 20.4104 7.08485 20.141 7.29381L20.0094 7.41001L15.8094 11.61C15.5583 11.862 15.4125 12.2 15.4016 12.5556C15.3908 12.9111 15.5157 13.2574 15.7509 13.5242C15.9862 13.791 16.3141 13.9583 16.6682 13.992C17.0223 14.0257 17.376 13.9234 17.6574 13.7059L17.789 13.5897L19.5992 11.7808V28C19.5992 28.3713 19.7467 28.7274 20.0092 28.9899C20.2718 29.2525 20.6279 29.4 20.9992 29.4ZM20.9992 35C22.6082 35.001 24.1685 34.4478 25.4174 33.4333C26.6662 32.4188 27.5275 31.005 27.8562 29.4299C28.1849 27.8548 27.9609 26.2146 27.222 24.7853C26.4831 23.356 25.2744 22.2249 23.7992 21.5823V23.9791C24.6553 24.5752 25.2988 25.429 25.6361 26.4162C25.9733 27.4033 25.9868 28.4724 25.6744 29.4677C25.362 30.463 24.7401 31.3327 23.8992 31.9501C23.0584 32.5674 22.0424 32.9004 20.9992 32.9004C19.956 32.9004 18.94 32.5674 18.0992 31.9501C17.2583 31.3327 16.6364 30.463 16.324 29.4677C16.0116 28.4724 16.0251 27.4033 16.3623 26.4162C16.6996 25.429 17.3431 24.5752 18.1992 23.9791V21.5823C16.7254 22.2259 15.5181 23.3573 14.7803 24.7862C14.0425 26.2152 13.819 27.8545 14.1475 29.4288C14.4761 31.0031 15.3365 32.4163 16.5843 33.4308C17.832 34.4454 19.391 34.9995 20.9992 35Z" fill="white"/>
<defs>
<linearGradient id="paint0_linear_8223_3388" x1="21" y1="0" x2="21" y2="42" gradientUnits="userSpaceOnUse">
<stop stop-color="#229D47"/>
<stop offset="1" stop-color="#142A14"/>
</linearGradient>
</defs>
</svg>
